<svg width="136" height="28" viewBox="0 0 136 28" fill="none" xmlns="http://www.w3.org/2000/svg">
<path d="M14.9316 20.2852C14.9316 19.2891 14.5801 18.5273 13.877 18C13.1738 17.4609 11.9082 16.8984 10.0801 16.3125C8.25195 15.7148 6.80469 15.1289 5.73828 14.5547C2.83203 12.9844 1.37891 10.8691 1.37891 8.20898C1.37891 6.82617 1.76562 5.5957 2.53906 4.51758C3.32422 3.42773 4.44336 2.57812 5.89648 1.96875C7.36133 1.35938 9.00195 1.05469 10.8184 1.05469C12.6465 1.05469 14.2754 1.38867 15.7051 2.05664C17.1348 2.71289 18.2422 3.64453 19.0273 4.85156C19.8242 6.05859 20.2227 7.42969 20.2227 8.96484H14.9492C14.9492 7.79297 14.5801 6.88477 13.8418 6.24023C13.1035 5.58398 12.0664 5.25586 10.7305 5.25586C9.44141 5.25586 8.43945 5.53125 7.72461 6.08203C7.00977 6.62109 6.65234 7.33594 6.65234 8.22656C6.65234 9.05859 7.06836 9.75586 7.90039 10.3184C8.74414 10.8809 9.98047 11.4082 11.6094 11.9004C14.6094 12.8027 16.7949 13.9219 18.166 15.2578C19.5371 16.5938 20.2227 18.2578 20.2227 20.25C20.2227 22.4648 19.3848 24.2051 17.709 25.4707C16.0332 26.7246 13.7773 27.3516 10.9414 27.3516C8.97266 27.3516 7.17969 26.9941 5.5625 26.2793C3.94531 25.5527 2.70898 24.5625 1.85352 23.3086C1.00977 22.0547 0.587891 20.6016 0.587891 18.9492H5.87891C5.87891 21.7734 7.56641 23.1855 10.9414 23.1855C12.1953 23.1855 13.1738 22.9336 13.877 22.4297C14.5801 21.9141 14.9316 21.1992 14.9316 20.2852ZM34.4961 27C34.2617 26.543 34.0918 25.9746 33.9863 25.2949C32.7559 26.666 31.1562 27.3516 29.1875 27.3516C27.3242 27.3516 25.7773 26.8125 24.5469 25.7344C23.3281 24.6562 22.7188 23.2969 22.7188 21.6562C22.7188 19.6406 23.4629 18.0938 24.9512 17.0156C26.4512 15.9375 28.6133 15.3926 31.4375 15.3809H33.7754V14.291C33.7754 13.4121 33.5469 12.709 33.0898 12.1816C32.6445 11.6543 31.9355 11.3906 30.9629 11.3906C30.1074 11.3906 29.4336 11.5957 28.9414 12.0059C28.4609 12.416 28.2207 12.9785 28.2207 13.6934H23.1406C23.1406 12.5918 23.4805 11.5723 24.1602 10.6348C24.8398 9.69727 25.8008 8.96484 27.043 8.4375C28.2852 7.89844 29.6797 7.62891 31.2266 7.62891C33.5703 7.62891 35.4277 8.2207 36.7988 9.4043C38.1816 10.5762 38.873 12.2285 38.873 14.3613V22.6055C38.8848 24.4102 39.1367 25.7754 39.6289 26.7012V27H34.4961ZM30.2949 23.4668C31.0449 23.4668 31.7363 23.3027 32.3691 22.9746C33.002 22.6348 33.4707 22.1836 33.7754 21.6211V18.3516H31.877C29.334 18.3516 27.9805 19.2305 27.8164 20.9883L27.7988 21.2871C27.7988 21.9199 28.0215 22.4414 28.4668 22.8516C28.9121 23.2617 29.5215 23.4668 30.2949 23.4668ZM53.7969 27C53.5625 26.543 53.3926 25.9746 53.2871 25.2949C52.0566 26.666 50.457 27.3516 48.4883 27.3516C46.625 27.3516 45.0781 26.8125 43.8477 25.7344C42.6289 24.6562 42.0195 23.2969 42.0195 21.6562C42.0195 19.6406 42.7637 18.0938 44.252 17.0156C45.752 15.9375 47.9141 15.3926 50.7383 15.3809H53.0762V14.291C53.0762 13.4121 52.8477 12.709 52.3906 12.1816C51.9453 11.6543 51.2363 11.3906 50.2637 11.3906C49.4082 11.3906 48.7344 11.5957 48.2422 12.0059C47.7617 12.416 47.5215 12.9785 47.5215 13.6934H42.4414C42.4414 12.5918 42.7812 11.5723 43.4609 10.6348C44.1406 9.69727 45.1016 8.96484 46.3438 8.4375C47.5859 7.89844 48.9805 7.62891 50.5273 7.62891C52.8711 7.62891 54.7285 8.2207 56.0996 9.4043C57.4824 10.5762 58.1738 12.2285 58.1738 14.3613V22.6055C58.1855 24.4102 58.4375 25.7754 58.9297 26.7012V27H53.7969ZM49.5957 23.4668C50.3457 23.4668 51.0371 23.3027 51.6699 22.9746C52.3027 22.6348 52.7715 22.1836 53.0762 21.6211V18.3516H51.1777C48.6348 18.3516 47.2812 19.2305 47.1172 20.9883L47.0996 21.2871C47.0996 21.9199 47.3223 22.4414 47.7676 22.8516C48.2129 23.2617 48.8223 23.4668 49.5957 23.4668ZM75.6816 20.2852C75.6816 19.2891 75.3301 18.5273 74.627 18C73.9238 17.4609 72.6582 16.8984 70.8301 16.3125C69.002 15.7148 67.5547 15.1289 66.4883 14.5547C63.582 12.9844 62.1289 10.8691 62.1289 8.20898C62.1289 6.82617 62.5156 5.5957 63.2891 4.51758C64.0742 3.42773 65.1934 2.57812 66.6465 1.96875C68.1113 1.35938 69.752 1.05469 71.5684 1.05469C73.3965 1.05469 75.0254 1.38867 76.4551 2.05664C77.8848 2.71289 78.9922 3.64453 79.7773 4.85156C80.5742 6.05859 80.9727 7.42969 80.9727 8.96484H75.6992C75.6992 7.79297 75.3301 6.88477 74.5918 6.24023C73.8535 5.58398 72.8164 5.25586 71.4805 5.25586C70.1914 5.25586 69.1895 5.53125 68.4746 6.08203C67.7598 6.62109 67.4023 7.33594 67.4023 8.22656C67.4023 9.05859 67.8184 9.75586 68.6504 10.3184C69.4941 10.8809 70.7305 11.4082 72.3594 11.9004C75.3594 12.8027 77.5449 13.9219 78.916 15.2578C80.2871 16.5938 80.9727 18.2578 80.9727 20.25C80.9727 22.4648 80.1348 24.2051 78.459 25.4707C76.7832 26.7246 74.5273 27.3516 71.6914 27.3516C69.7227 27.3516 67.9297 26.9941 66.3125 26.2793C64.6953 25.5527 63.459 24.5625 62.6035 23.3086C61.7598 22.0547 61.3379 20.6016 61.3379 18.9492H66.6289C66.6289 21.7734 68.3164 23.1855 71.6914 23.1855C72.9453 23.1855 73.9238 22.9336 74.627 22.4297C75.3301 21.9141 75.6816 21.1992 75.6816 20.2852ZM94.9121 12.7441C94.2207 12.6504 93.6113 12.6035 93.084 12.6035C91.1621 12.6035 89.9023 13.2539 89.3047 14.5547V27H84.2246V7.98047H89.0234L89.1641 10.248C90.1836 8.50195 91.5957 7.62891 93.4004 7.62891C93.9629 7.62891 94.4902 7.70508 94.9824 7.85742L94.9121 12.7441ZM102.734 27H97.6367V7.98047H102.734V27ZM97.3379 3.05859C97.3379 2.29688 97.5898 1.66992 98.0938 1.17773C98.6094 0.685547 99.3066 0.439453 100.186 0.439453C101.053 0.439453 101.744 0.685547 102.26 1.17773C102.775 1.66992 103.033 2.29688 103.033 3.05859C103.033 3.83203 102.77 4.46484 102.242 4.95703C101.727 5.44922 101.041 5.69531 100.186 5.69531C99.3301 5.69531 98.6387 5.44922 98.1113 4.95703C97.5957 4.46484 97.3379 3.83203 97.3379 3.05859ZM113.018 3.30469V7.98047H116.27V11.707H113.018V21.1992C113.018 21.9023 113.152 22.4062 113.422 22.7109C113.691 23.0156 114.207 23.168 114.969 23.168C115.531 23.168 116.029 23.127 116.463 23.0449V26.8945C115.467 27.1992 114.441 27.3516 113.387 27.3516C109.824 27.3516 108.008 25.5527 107.938 21.9551V11.707H105.16V7.98047H107.938V3.30469H113.018ZM127.854 27.3516C125.064 27.3516 122.791 26.4961 121.033 24.7852C119.287 23.0742 118.414 20.7949 118.414 17.9473V17.4551C118.414 15.5449 118.783 13.8398 119.521 12.3398C120.26 10.8281 121.303 9.66797 122.65 8.85938C124.01 8.03906 125.557 7.62891 127.291 7.62891C129.893 7.62891 131.938 8.44922 133.426 10.0898C134.926 11.7305 135.676 14.0566 135.676 17.0684V19.1426H123.564C123.729 20.3848 124.221 21.3809 125.041 22.1309C125.873 22.8809 126.922 23.2559 128.188 23.2559C130.145 23.2559 131.674 22.5469 132.775 21.1289L135.271 23.9238C134.51 25.002 133.479 25.8457 132.178 26.4551C130.877 27.0527 129.436 27.3516 127.854 27.3516ZM127.273 11.7422C126.266 11.7422 125.445 12.082 124.812 12.7617C124.191 13.4414 123.793 14.4141 123.617 15.6797H130.684V15.2754C130.66 14.1504 130.355 13.2832 129.77 12.6738C129.184 12.0527 128.352 11.7422 127.273 11.7422Z" fill="#FF4400"/>
</svg>
